<?xml version="1.0" encoding="utf-8"?>
<!-- Generator: Adobe Illustrator 27.8.0, SVG Export Plug-In . SVG Version: 6.00 Build 0)  -->
<svg version="1.1" id="Layer_1" xmlns="http://www.w3.org/2000/svg" xmlns:xlink="http://www.w3.org/1999/xlink" x="0px" y="0px"
	 viewBox="0 0 24 308.5" style="enable-background:new 0 0 24 308.5;" xml:space="preserve">
<style type="text/css">
	.st0{fill:#363853;}
	.st1{fill:none;stroke:#363853;stroke-width:1.5;stroke-linecap:round;}
	.st2{fill:none;stroke:#363853;stroke-width:1.5;}
	.st3{fill:none;stroke:#363853;stroke-width:2;stroke-linecap:round;stroke-linejoin:round;}
	.st4{fill:#FFFFFF;}
	.st5{fill:none;stroke:#FFFFFF;stroke-width:1.5;stroke-linecap:round;}
	.st6{fill:none;stroke:#FFFFFF;stroke-width:1.5;}
	.st7{fill:none;stroke:#FFFFFF;stroke-width:2;stroke-linecap:round;stroke-linejoin:round;}
</style>
<path class="st0" d="M18.3,52.3l-0.6-6.4c0-0.3-0.3-0.5-0.6-0.5h-3.4V44c0-2-1.7-3.7-3.7-3.7c-2,0-3.7,1.7-3.7,3.7v1.3H2.9
	c-0.3,0-0.5,0.2-0.6,0.5L1.1,59.1c0,0.5,0.1,1,0.5,1.4c0.3,0.4,0.8,0.6,1.3,0.6h9c1,1.7,2.9,2.9,5.1,2.9c3.3,0,5.9-2.7,5.9-5.9
	C22.9,55.2,20.9,52.9,18.3,52.3z M7.5,44c0-1.4,1.1-2.6,2.6-2.6c1.4,0,2.6,1.1,2.6,2.6v1.3H7.5V44z M2.9,60c-0.2,0-0.4-0.1-0.5-0.2
	c-0.1-0.1-0.2-0.3-0.2-0.5l1.2-12.8h2.9v1c0,0.3,0.3,0.6,0.6,0.6c0.3,0,0.6-0.3,0.6-0.6v-1h5.1v1c0,0.3,0.3,0.6,0.6,0.6
	c0.3,0,0.6-0.3,0.6-0.6v-1h2.9l0.5,5.7c-0.1,0-0.1,0-0.2,0c-3.3,0-5.9,2.7-5.9,5.9c0,0.7,0.1,1.3,0.3,1.9H2.9z M17,62.8
	c-2.6,0-4.8-2.1-4.8-4.8c0-2.6,2.1-4.8,4.8-4.8c2.6,0,4.8,2.1,4.8,4.8C21.8,60.7,19.6,62.8,17,62.8z M19.6,56.3
	c0.2,0.2,0.2,0.6,0,0.8l-2.9,2.8c-0.1,0.1-0.2,0.2-0.4,0.2c-0.1,0-0.3,0-0.4-0.1l-1.6-1.5c-0.2-0.2-0.2-0.6,0-0.8
	c0.2-0.2,0.6-0.2,0.8,0l1.2,1.1l2.5-2.4C19.1,56,19.4,56,19.6,56.3z"/>
<path class="st1" d="M9,90.1h4 M9,96.1h3 M9,93.1h6"/>
<path class="st2" d="M3.4,90.1C4,87.3,6.2,85.1,9,84.5c2-0.5,4.1-0.5,6.1,0c2.8,0.7,4.9,2.8,5.6,5.6c0.5,2,0.5,4.1,0,6.1
	c-0.7,2.8-2.8,4.9-5.6,5.6c-2,0.5-4.1,0.5-6.1,0C6.2,101.1,4,99,3.4,96.2C2.9,94.2,2.9,92.1,3.4,90.1z"/>
<path class="st3" d="M12,123.1v9 M18.4,125.8c1.3,1.3,2.1,2.9,2.5,4.6c0.3,1.7,0.2,3.6-0.5,5.2c-0.7,1.6-1.8,3-3.3,4
	c-1.5,1-3.2,1.5-5,1.5s-3.5-0.5-5-1.5c-1.5-1-2.6-2.4-3.3-4c-0.7-1.6-0.9-3.5-0.5-5.2s1.2-3.3,2.5-4.6"/>
<path class="st3" d="M15.6,6.2c0,2.2-1.8,4-4,4c-2.2,0-4-1.8-4-4s1.8-4,4-4C13.9,2.2,15.6,4,15.6,6.2z"/>
<path class="st3" d="M11.6,13.1c-3.9,0-7,3.1-7,7h14C18.6,16.2,15.5,13.1,11.6,13.1z"/>
<path class="st4" d="M18.3,215.3l-0.6-6.4c0-0.3-0.3-0.5-0.6-0.5h-3.4V207c0-2-1.7-3.7-3.7-3.7c-2,0-3.7,1.7-3.7,3.7v1.3H2.9
	c-0.3,0-0.5,0.2-0.6,0.5l-1.2,13.3c0,0.5,0.1,1,0.5,1.4c0.3,0.4,0.8,0.6,1.3,0.6h9c1,1.7,2.9,2.9,5.1,2.9c3.3,0,5.9-2.7,5.9-5.9
	C22.9,218.2,20.9,215.9,18.3,215.3z M7.5,207c0-1.4,1.1-2.6,2.6-2.6c1.4,0,2.6,1.1,2.6,2.6v1.3H7.5V207z M2.9,223
	c-0.2,0-0.4-0.1-0.5-0.2c-0.1-0.1-0.2-0.3-0.2-0.5l1.2-12.8h2.9v1c0,0.3,0.3,0.6,0.6,0.6c0.3,0,0.6-0.3,0.6-0.6v-1h5.1v1
	c0,0.3,0.3,0.6,0.6,0.6c0.3,0,0.6-0.3,0.6-0.6v-1h2.9l0.5,5.7c-0.1,0-0.1,0-0.2,0c-3.3,0-5.9,2.7-5.9,5.9c0,0.7,0.1,1.3,0.3,1.9H2.9
	z M17,225.8c-2.6,0-4.8-2.1-4.8-4.8c0-2.6,2.1-4.8,4.8-4.8c2.6,0,4.8,2.1,4.8,4.8C21.8,223.7,19.6,225.8,17,225.8z M19.6,219.3
	c0.2,0.2,0.2,0.6,0,0.8l-2.9,2.8c-0.1,0.1-0.2,0.2-0.4,0.2c-0.1,0-0.3,0-0.4-0.1l-1.6-1.5c-0.2-0.2-0.2-0.6,0-0.8
	c0.2-0.2,0.6-0.2,0.8,0l1.2,1.1l2.5-2.4C19.1,219,19.4,219,19.6,219.3z"/>
<path class="st5" d="M9,253.1h4 M9,259.1h3 M9,256.1h6"/>
<path class="st6" d="M3.4,253.1c0.7-2.8,2.8-4.9,5.6-5.6c2-0.5,4.1-0.5,6.1,0c2.8,0.7,4.9,2.8,5.6,5.6c0.5,2,0.5,4.1,0,6.1
	c-0.7,2.8-2.8,4.9-5.6,5.6c-2,0.5-4.1,0.5-6.1,0c-2.8-0.7-4.9-2.8-5.6-5.6C2.9,257.2,2.9,255.1,3.4,253.1z"/>
<path class="st7" d="M12,286.1v9 M18.4,288.8c1.3,1.3,2.1,2.9,2.5,4.6c0.3,1.7,0.2,3.6-0.5,5.2c-0.7,1.6-1.8,3-3.3,4
	c-1.5,1-3.2,1.5-5,1.5s-3.5-0.5-5-1.5c-1.5-1-2.6-2.4-3.3-4c-0.7-1.6-0.9-3.5-0.5-5.2c0.3-1.7,1.2-3.3,2.5-4.6"/>
<path class="st7" d="M15.6,169.2c0,2.2-1.8,4-4,4c-2.2,0-4-1.8-4-4s1.8-4,4-4C13.9,165.2,15.6,167,15.6,169.2z"/>
<path class="st7" d="M11.6,176.1c-3.9,0-7,3.1-7,7h14C18.6,179.2,15.5,176.1,11.6,176.1z"/>
</svg>
