<svg width="18" height="18" viewBox="0 0 18 18" fill="none" xmlns="http://www.w3.org/2000/svg">
<g clip-path="url(#clip0_281_972)">
<path d="M14.5371 12.7617C14.9121 12.7617 15.249 12.6475 15.5479 12.4189C15.8467 12.1904 16.043 11.8945 16.1367 11.5312L17.9824 4.6582C18.0176 4.54102 18.0059 4.43262 17.9473 4.33301C17.8887 4.2334 17.8008 4.16602 17.6836 4.13086C17.6719 4.13086 17.6572 4.13086 17.6396 4.13086C17.6221 4.13086 17.6016 4.13086 17.5781 4.13086H3.70898L2.75977 0.632812C2.73633 0.539062 2.68652 0.46582 2.61035 0.413086C2.53418 0.360352 2.44922 0.333984 2.35547 0.333984H0V1.16016H2.02148L2.93555 4.57031C2.93555 4.58203 2.93555 4.59668 2.93555 4.61426C2.93555 4.63184 2.93555 4.64648 2.93555 4.6582L4.81641 11.5488C4.82812 11.5723 4.83691 11.5986 4.84277 11.6279C4.84863 11.6572 4.85742 11.6895 4.86914 11.7246L5.50195 14.0273C5.19727 14.1914 4.95117 14.4258 4.76367 14.7305C4.57617 15.0352 4.48242 15.3691 4.48242 15.7324C4.48242 16.2715 4.66992 16.7285 5.04492 17.1035C5.41992 17.4785 5.87695 17.666 6.41602 17.666C6.95508 17.666 7.41211 17.4785 7.78711 17.1035C8.16211 16.7285 8.34961 16.2715 8.34961 15.7324C8.34961 15.5684 8.3291 15.4072 8.28809 15.249C8.24707 15.0908 8.19141 14.9473 8.12109 14.8184C8.09766 14.7832 8.07715 14.751 8.05957 14.7217C8.04199 14.6924 8.02148 14.6602 7.99805 14.625H12.9375C12.8203 14.7773 12.7324 14.9502 12.6738 15.1436C12.6152 15.3369 12.5859 15.5332 12.5859 15.7324C12.5859 16.2715 12.7734 16.7285 13.1484 17.1035C13.5234 17.4785 13.9805 17.666 14.5195 17.666C15.0469 17.666 15.501 17.4785 15.8818 17.1035C16.2627 16.7285 16.4531 16.2715 16.4531 15.7324C16.4531 15.4863 16.4062 15.252 16.3125 15.0293C16.2188 14.8066 16.0957 14.6074 15.9434 14.4316C15.7676 14.2324 15.5596 14.0771 15.3193 13.9658C15.0791 13.8545 14.8184 13.7988 14.5371 13.7988H6.3457L6.04688 12.709C6.11719 12.7324 6.18457 12.7471 6.24902 12.7529C6.31348 12.7588 6.375 12.7617 6.43359 12.7617H14.5371ZM14.5195 14.625C14.8242 14.625 15.085 14.7334 15.3018 14.9502C15.5186 15.167 15.627 15.4277 15.627 15.7324C15.627 16.0488 15.5186 16.3154 15.3018 16.5322C15.085 16.749 14.8242 16.8574 14.5195 16.8574C14.2148 16.8574 13.9541 16.749 13.7373 16.5322C13.5205 16.3154 13.4121 16.0488 13.4121 15.7324C13.4121 15.4277 13.5205 15.167 13.7373 14.9502C13.9541 14.7334 14.2148 14.625 14.5195 14.625ZM6.41602 14.625C6.7207 14.625 6.98145 14.7334 7.19824 14.9502C7.41504 15.167 7.52344 15.4277 7.52344 15.7324C7.52344 16.0488 7.41504 16.3154 7.19824 16.5322C6.98145 16.749 6.7207 16.8574 6.41602 16.8574C6.11133 16.8574 5.85059 16.749 5.63379 16.5322C5.41699 16.3154 5.30859 16.0488 5.30859 15.7324C5.30859 15.4277 5.41699 15.167 5.63379 14.9502C5.85059 14.7334 6.11133 14.625 6.41602 14.625ZM5.67773 11.4082L4.74609 7.98047L3.90234 4.97461H17.0332L15.3281 11.3379C15.2812 11.5254 15.1846 11.6748 15.0381 11.7861C14.8916 11.8975 14.7246 11.959 14.5371 11.9707H6.43359C6.25781 11.959 6.10254 11.9004 5.96777 11.7949C5.83301 11.6895 5.73633 11.5605 5.67773 11.4082Z" fill="#071C1F"/>
</g>
<defs>
<clipPath id="clip0_281_972">
<rect width="18" height="18" fill="white" transform="matrix(1 0 0 -1 0 18)"/>
</clipPath>
</defs>
</svg>
