<svg width="16" height="16" viewBox="0 0 16 16" fill="none" xmlns="http://www.w3.org/2000/svg">
<path d="M5.625 0C4.85417 0 4.125 0.145833 3.4375 0.4375C2.75 0.739583 2.15365 1.14323 1.64844 1.64844C1.14323 2.15365 0.739583 2.75 0.4375 3.4375C0.145833 4.125 0 4.85417 0 5.625C0 6.14583 0.0703125 6.65885 0.210938 7.16406C0.351562 7.66927 0.5625 8.14062 0.84375 8.57812L5.3125 15.7812C5.35417 15.8438 5.40885 15.8958 5.47656 15.9375C5.54427 15.9792 5.61979 16 5.70312 16C5.78646 16 5.86458 15.9792 5.9375 15.9375C6.01042 15.8958 6.06771 15.8385 6.10938 15.7656L10.4531 8.5C10.7135 8.07292 10.9115 7.61458 11.0469 7.125C11.1823 6.63542 11.25 6.13542 11.25 5.625C11.25 4.85417 11.1042 4.125 10.8125 3.4375C10.5104 2.75 10.1068 2.15365 9.60156 1.64844C9.09635 1.14323 8.5 0.739583 7.8125 0.4375C7.125 0.145833 6.39583 0 5.625 0ZM9.65625 8.03125L5.70312 14.625L1.64062 8.09375C1.41146 7.71875 1.23698 7.32292 1.11719 6.90625C0.997396 6.48958 0.9375 6.0625 0.9375 5.625C0.9375 4.97917 1.05729 4.36979 1.29688 3.79688C1.54688 3.23438 1.88542 2.73958 2.3125 2.3125C2.73958 1.88542 3.23438 1.54688 3.79688 1.29688C4.36979 1.05729 4.97917 0.9375 5.625 0.9375C6.27083 0.9375 6.88021 1.05729 7.45312 1.29688C8.01562 1.54688 8.51042 1.88542 8.9375 2.3125C9.36458 2.73958 9.70312 3.23438 9.95312 3.79688C10.1927 4.36979 10.3125 4.97917 10.3125 5.625C10.3125 6.05208 10.2552 6.46875 10.1406 6.875C10.026 7.28125 9.86458 7.66667 9.65625 8.03125ZM5.625 2.8125C4.85417 2.8125 4.19271 3.08854 3.64062 3.64062C3.08854 4.19271 2.8125 4.85417 2.8125 5.625C2.8125 6.39583 3.08594 7.05729 3.63281 7.60938C4.17969 8.16146 4.84375 8.4375 5.625 8.4375C6.41667 8.4375 7.08333 8.15885 7.625 7.60156C8.16667 7.04427 8.4375 6.38542 8.4375 5.625C8.4375 4.85417 8.16146 4.19271 7.60938 3.64062C7.05729 3.08854 6.39583 2.8125 5.625 2.8125ZM5.625 7.5C5.10417 7.5 4.66146 7.31771 4.29688 6.95312C3.93229 6.58854 3.75 6.14583 3.75 5.625C3.75 5.10417 3.93229 4.66146 4.29688 4.29688C4.66146 3.93229 5.10417 3.75 5.625 3.75C6.14583 3.75 6.58854 3.93229 6.95312 4.29688C7.31771 4.66146 7.5 5.10417 7.5 5.625C7.5 6.13542 7.32031 6.57552 6.96094 6.94531C6.60156 7.3151 6.15625 7.5 5.625 7.5Z" fill="black"/>
</svg>
