<svg width="16" height="16" viewBox="0 0 16 16" fill="none" xmlns="http://www.w3.org/2000/svg">
<path d="M15.1719 2.67188H0.828125C0.598958 2.67188 0.403646 2.7526 0.242188 2.91406C0.0807292 3.07552 0 3.26562 0 3.48438V12.5156C0 12.7344 0.0807292 12.9245 0.242188 13.0859C0.403646 13.2474 0.598958 13.3281 0.828125 13.3281H15.1719C15.401 13.3281 15.5964 13.2474 15.7578 13.0859C15.9193 12.9245 16 12.7344 16 12.5156V3.48438C16 3.26562 15.9193 3.07552 15.7578 2.91406C15.5964 2.7526 15.401 2.67188 15.1719 2.67188ZM14.875 3.28125L8.46875 8.07812C8.41667 8.11979 8.34896 8.15365 8.26562 8.17969C8.18229 8.20573 8.09375 8.21875 8 8.21875C7.90625 8.21875 7.81771 8.20573 7.73438 8.17969C7.65104 8.15365 7.58333 8.11979 7.53125 8.07812L1.125 3.28125H14.875ZM11.4531 8.40625L14.9375 12.7031C14.9375 12.7031 14.9401 12.7057 14.9453 12.7109C14.9505 12.7161 14.9531 12.7188 14.9531 12.7188H1.04688C1.04688 12.7188 1.04948 12.7161 1.05469 12.7109C1.0599 12.7057 1.0625 12.7031 1.0625 12.7031L4.54688 8.40625C4.59896 8.33333 4.61979 8.25521 4.60938 8.17188C4.59896 8.08854 4.5625 8.02083 4.5 7.96875C4.4375 7.91667 4.36458 7.89323 4.28125 7.89844C4.19792 7.90365 4.125 7.94271 4.0625 8.01562L0.609375 12.2812V3.67188L7.15625 8.57812C7.28125 8.67188 7.41667 8.73958 7.5625 8.78125C7.70833 8.82292 7.85417 8.84375 8 8.84375C8.14583 8.84375 8.29167 8.82292 8.4375 8.78125C8.58333 8.73958 8.71875 8.67188 8.84375 8.57812L15.3906 3.67188V12.2812L11.9375 8.01562C11.875 7.94271 11.8021 7.90365 11.7188 7.89844C11.6354 7.89323 11.5625 7.91667 11.5 7.96875C11.4375 8.02083 11.401 8.08854 11.3906 8.17188C11.3802 8.25521 11.401 8.33333 11.4531 8.40625Z" fill="black"/>
</svg>
