<svg width="48" height="38" viewBox="0 0 48 38" fill="none" xmlns="http://www.w3.org/2000/svg">
<path d="M14.0001 26.5339C8.47712 22.2236 8.47712 15.2357 14.0001 10.9255C19.5231 6.6152 28.4771 6.6152 34.0001 10.9255C39.5221 15.2349 39.5231 22.2236 34.0001 26.5339C28.4771 30.8441 19.5221 30.8434 14.0001 26.5339ZM16.0001 24.973C18.1219 26.6289 20.9995 27.5591 24.0001 27.5591C27.0007 27.5591 29.8784 26.6289 32.0001 24.973C34.1219 23.3172 35.3138 21.0714 35.3138 18.7297C35.3138 16.388 34.1219 14.1421 32.0001 12.4863C29.8784 10.8305 27.0007 9.90022 24.0001 9.90022C20.9995 9.90022 18.1219 10.8305 16.0001 12.4863C13.8784 14.1421 12.6864 16.388 12.6864 18.7297C12.6864 21.0714 13.8784 23.3172 16.0001 24.973ZM16.1001 17.6262L22.5861 17.6262L22.5861 12.5643C22.5691 11.8284 23.0401 11.4608 24.0001 11.4608C24.9601 11.4608 25.4311 11.8284 25.4141 12.5643V17.6262H31.9001C32.8421 17.6262 33.3131 17.9937 33.3141 18.7297C33.3131 19.4656 32.8421 19.8332 31.9001 19.8332H25.4141V24.895C25.4361 25.6301 24.9641 25.9985 24.0001 25.9985C23.0361 25.9985 22.5641 25.6301 22.5861 24.895L22.5861 19.8332L16.1001 19.8332C15.1581 19.8347 14.6861 19.4664 14.6861 18.7297C14.6861 17.993 15.1581 17.6246 16.1001 17.6262Z" fill="#011632"/>
</svg>
