<svg width="16" height="16" viewBox="0 0 16 16" fill="none" xmlns="http://www.w3.org/2000/svg">
<g clip-path="url(#clip0_387_911)">
<path d="M15.5624 12.3438L12.328 10.1875C12.1197 10.0521 11.8932 10.0026 11.6484 10.0391C11.4036 10.0755 11.2083 10.1927 11.0624 10.3906L10.1093 11.6094C10.0572 11.6823 9.9817 11.7292 9.88274 11.75C9.78378 11.7708 9.68742 11.7552 9.59367 11.7031L9.4218 11.6094C9.11972 11.4531 8.76034 11.2318 8.34367 10.9453C7.92701 10.6589 7.34367 10.1406 6.59367 9.39062C5.84367 8.64062 5.32805 8.05729 5.0468 7.64062C4.76555 7.22396 4.54159 6.86458 4.37492 6.5625L4.28117 6.39062C4.22909 6.29688 4.21347 6.20052 4.2343 6.10156C4.25513 6.0026 4.30201 5.92708 4.37492 5.875L5.59367 4.92188C5.79159 4.77604 5.90878 4.58073 5.94524 4.33594C5.9817 4.09115 5.93222 3.86458 5.7968 3.65625L3.64055 0.421875C3.50513 0.213542 3.31503 0.0807295 3.07024 0.0234375C2.82545 -0.0338535 2.59367 0.00520802 2.37492 0.140625L1.01555 0.953125C0.807217 1.07812 0.627529 1.23698 0.476487 1.42969C0.325446 1.6224 0.213467 1.83854 0.14055 2.07812C0.0259665 2.52604 -0.0209085 3.05208 -7.512e-05 3.65625C0.0103415 4.26042 0.166592 4.95052 0.468675 5.72656C0.770758 6.5026 1.24472 7.36979 1.89055 8.32812C2.52597 9.27604 3.41138 10.3125 4.5468 11.4375C5.44263 12.3333 6.28117 13.0781 7.06242 13.6719C7.85409 14.2552 8.58586 14.7188 9.25774 15.0625C9.92961 15.4062 10.5468 15.651 11.1093 15.7969C11.6822 15.9323 12.1978 16 12.6562 16C12.8645 16 13.0728 15.987 13.2812 15.9609C13.4895 15.9349 13.6978 15.8906 13.9062 15.8281C14.1458 15.7656 14.3619 15.6589 14.5546 15.5078C14.7473 15.3568 14.9062 15.1771 15.0312 14.9688L15.8437 13.6094C15.9791 13.3906 16.0182 13.1589 15.9609 12.9141C15.9036 12.6693 15.7708 12.4792 15.5624 12.3438ZM15.3905 13.3438L14.578 14.6875C14.4843 14.8438 14.3671 14.9766 14.2265 15.0859C14.0859 15.1953 13.9322 15.276 13.7655 15.3281C13.3593 15.4323 12.8697 15.474 12.2968 15.4531C11.7343 15.4323 11.0859 15.276 10.3515 14.9844C9.61711 14.6927 8.80201 14.2396 7.90617 13.625C6.99992 13 6.00513 12.1458 4.9218 11.0625C3.83847 9.97917 2.9843 8.98438 2.3593 8.07812C1.74472 7.18229 1.29159 6.36719 0.999925 5.63281C0.708258 4.89844 0.552008 4.25 0.531175 3.6875C0.510342 3.11458 0.552008 2.625 0.656175 2.21875C0.708258 2.05208 0.788987 1.89844 0.898362 1.75781C1.00774 1.61719 1.14055 1.5 1.2968 1.40625L2.64055 0.59375C2.7343 0.541667 2.83586 0.526042 2.94524 0.546875C3.05461 0.567708 3.14055 0.625 3.20305 0.71875L5.3593 3.95312C5.41138 4.04688 5.42961 4.14583 5.41399 4.25C5.39836 4.35417 5.34888 4.4375 5.26555 4.5L4.0468 5.45312C3.86972 5.58854 3.75774 5.77083 3.71086 6C3.66399 6.22917 3.69784 6.44271 3.81242 6.64062L3.90617 6.8125C4.07284 7.125 4.30461 7.5026 4.60149 7.94531C4.89836 8.38802 5.43742 8.99479 6.21867 9.76562C6.98951 10.5365 7.59367 11.0729 8.03117 11.375C8.46867 11.6771 8.84367 11.9115 9.15617 12.0781L9.34367 12.1719C9.54159 12.2865 9.75513 12.3203 9.9843 12.2734C10.2135 12.2266 10.3958 12.1094 10.5312 11.9219L11.4843 10.7188C11.5468 10.6354 11.6301 10.5859 11.7343 10.5703C11.8385 10.5547 11.9374 10.5729 12.0312 10.625L15.2655 12.7812C15.3593 12.8438 15.4166 12.9297 15.4374 13.0391C15.4583 13.1484 15.4426 13.25 15.3905 13.3438ZM9.0468 2.67188C9.6718 2.67188 10.2603 2.79167 10.8124 3.03125C11.3645 3.26042 11.8463 3.58073 12.2577 3.99219C12.6692 4.40365 12.9895 4.88542 13.2187 5.4375C13.4583 5.98958 13.578 6.57812 13.578 7.20312C13.578 7.27604 13.6041 7.33854 13.6562 7.39062C13.7083 7.44271 13.7708 7.46875 13.8437 7.46875C13.9166 7.46875 13.9791 7.44271 14.0312 7.39062C14.0833 7.33854 14.1093 7.27604 14.1093 7.20312C14.1093 6.50521 13.9791 5.84896 13.7187 5.23438C13.4478 4.61979 13.0833 4.08333 12.6249 3.625C12.1666 3.16667 11.6301 2.80208 11.0155 2.53125C10.401 2.27083 9.74472 2.14062 9.0468 2.14062C8.97388 2.14062 8.91138 2.16667 8.8593 2.21875C8.80722 2.27083 8.78117 2.33333 8.78117 2.40625C8.78117 2.47917 8.80722 2.54167 8.8593 2.59375C8.91138 2.64583 8.97388 2.67188 9.0468 2.67188ZM9.0468 4.26562C9.8593 4.26562 10.552 4.55208 11.1249 5.125C11.6978 5.69792 11.9843 6.39062 11.9843 7.20312C11.9843 7.27604 12.0103 7.33854 12.0624 7.39062C12.1145 7.44271 12.177 7.46875 12.2499 7.46875C12.3228 7.46875 12.3853 7.44271 12.4374 7.39062C12.4895 7.33854 12.5155 7.27604 12.5155 7.20312C12.5155 6.72396 12.427 6.27604 12.2499 5.85938C12.0624 5.43229 11.8124 5.0625 11.4999 4.75C11.1874 4.4375 10.8228 4.19271 10.4062 4.01562C9.97909 3.82812 9.52597 3.73438 9.0468 3.73438C8.97388 3.73438 8.91138 3.76042 8.8593 3.8125C8.80722 3.86458 8.78117 3.92708 8.78117 4C8.78117 4.07292 8.80722 4.13542 8.8593 4.1875C8.91138 4.23958 8.97388 4.26562 9.0468 4.26562ZM9.0468 5.875C9.4218 5.875 9.73951 6.00521 9.99992 6.26562C10.2603 6.52604 10.3905 6.83854 10.3905 7.20312C10.3905 7.27604 10.4166 7.33854 10.4687 7.39062C10.5208 7.44271 10.5833 7.46875 10.6562 7.46875C10.7291 7.46875 10.7916 7.44271 10.8437 7.39062C10.8958 7.33854 10.9218 7.27604 10.9218 7.20312C10.9218 6.68229 10.7395 6.23958 10.3749 5.875C10.0103 5.51042 9.56763 5.32812 9.0468 5.32812C8.97388 5.32812 8.91138 5.35417 8.8593 5.40625C8.80722 5.45833 8.78117 5.52083 8.78117 5.59375C8.78117 5.67708 8.80722 5.74479 8.8593 5.79688C8.91138 5.84896 8.97388 5.875 9.0468 5.875Z" fill="black"/>
</g>
<defs>
<clipPath id="clip0_387_911">
<rect width="16" height="16" fill="white" transform="matrix(1 0 0 -1 0 16)"/>
</clipPath>
</defs>
</svg>
