<svg width="34" height="39" viewBox="0 0 34 39" fill="none" xmlns="http://www.w3.org/2000/svg">
<path fill-rule="evenodd" clip-rule="evenodd" d="M16.9922 5.68698C10.3554 5.68698 4.95609 11.883 4.95609 19.4993C4.95609 27.1156 10.3554 33.3117 16.9922 33.3117C23.6291 33.3117 29.0284 27.1156 29.0284 19.4993C29.0284 11.883 23.6291 5.68698 16.9922 5.68698ZM16.9922 35.7491C9.18431 35.7491 2.83207 28.4595 2.83207 19.4993C2.83207 10.5392 9.18431 3.24951 16.9922 3.24951C24.8001 3.24951 31.1524 10.5392 31.1524 19.4993C31.1524 28.4595 24.8001 35.7491 16.9922 35.7491Z" fill="#011632"/>
<path fill-rule="evenodd" clip-rule="evenodd" d="M14.9512 26.3586C14.6793 26.3586 14.406 26.24 14.1993 25.9995C13.7858 25.5217 13.7872 24.7515 14.2021 24.277L18.3822 19.4996L14.2021 14.7237C13.7872 14.2492 13.7858 13.4774 14.1993 12.9996C14.6127 12.5203 15.2839 12.5235 15.7002 12.9964L20.6365 18.6367C20.8361 18.8658 20.948 19.1762 20.948 19.4996C20.948 19.8246 20.8361 20.1349 20.6365 20.3641L15.7002 26.0027C15.4935 26.24 15.2216 26.3586 14.9512 26.3586Z" fill="#011632"/>
</svg>
