<svg width="15" height="17" viewBox="0 0 15 17" fill="none" xmlns="http://www.w3.org/2000/svg">
<path d="M7.4707 0C6.85091 0 6.26986 0.116211 5.72754 0.348633C5.18522 0.592123 4.71208 0.915854 4.30811 1.31982C3.90413 1.7238 3.5804 2.19694 3.33691 2.73926C3.10449 3.28158 2.98828 3.86263 2.98828 4.48242C2.98828 5.10221 3.10449 5.68327 3.33691 6.22559C3.5804 6.7679 3.90413 7.24105 4.30811 7.64502C4.71208 8.04899 5.18522 8.37272 5.72754 8.61621C6.26986 8.84863 6.85091 8.96484 7.4707 8.96484C8.0905 8.96484 8.67155 8.84863 9.21387 8.61621C9.75618 8.37272 10.2293 8.04899 10.6333 7.64502C11.0373 7.24105 11.361 6.7679 11.6045 6.22559C11.8369 5.68327 11.9531 5.10221 11.9531 4.48242C11.9531 3.86263 11.8369 3.28158 11.6045 2.73926C11.361 2.19694 11.0373 1.7238 10.6333 1.31982C10.2293 0.915854 9.75618 0.592123 9.21387 0.348633C8.67155 0.116211 8.0905 0 7.4707 0ZM7.4707 7.96875C6.99479 7.96875 6.54102 7.87467 6.10938 7.68652C5.6888 7.50944 5.3208 7.26318 5.00537 6.94775C4.68994 6.63232 4.44369 6.26432 4.2666 5.84375C4.07845 5.41211 3.98438 4.95833 3.98438 4.48242C3.98438 4.00651 4.07845 3.55273 4.2666 3.12109C4.44369 2.70052 4.68994 2.33252 5.00537 2.01709C5.3208 1.70166 5.6888 1.4554 6.10938 1.27832C6.54102 1.09017 6.99479 0.996094 7.4707 0.996094C7.94661 0.996094 8.40039 1.09017 8.83203 1.27832C9.2526 1.4554 9.62061 1.70166 9.93604 2.01709C10.2515 2.33252 10.4977 2.70052 10.6748 3.12109C10.863 3.55273 10.957 4.00651 10.957 4.48242C10.957 4.95833 10.863 5.41211 10.6748 5.84375C10.4977 6.26432 10.2515 6.63232 9.93604 6.94775C9.62061 7.26318 9.2526 7.50944 8.83203 7.68652C8.40039 7.87467 7.94661 7.96875 7.4707 7.96875ZM8.86523 9.99414H6.07617C5.50065 9.99414 4.9362 10.0605 4.38281 10.1934C3.81836 10.3262 3.27327 10.5309 2.74756 10.8076C2.22184 11.0843 1.72656 11.4329 1.26172 11.8535C0.796875 12.2741 0.376302 12.7666 0 13.3311V17H14.9414V13.3311C14.5651 12.7666 14.1445 12.2741 13.6797 11.8535C13.2148 11.4329 12.7196 11.0843 12.1938 10.8076C11.6681 10.5309 11.1286 10.3262 10.5752 10.1934C10.0107 10.0605 9.44075 9.99414 8.86523 9.99414ZM13.9453 16.0039H0.996094V13.6299C1.28385 13.2204 1.61589 12.8496 1.99219 12.5176C2.36849 12.1966 2.77523 11.9227 3.2124 11.6958C3.64958 11.4689 4.11165 11.2946 4.59863 11.1729C5.07454 11.0511 5.56706 10.9902 6.07617 10.9902H8.86523C9.37435 10.9902 9.86686 11.0511 10.3428 11.1729C10.8298 11.2946 11.2918 11.4689 11.729 11.6958C12.1662 11.9227 12.5729 12.1966 12.9492 12.5176C13.3255 12.8496 13.6576 13.2204 13.9453 13.6299V16.0039Z" fill="#071C1F"/>
</svg>
