<svg width="247" height="11" viewBox="0 0 247 11" fill="none" xmlns="http://www.w3.org/2000/svg">
<path fill-rule="evenodd" clip-rule="evenodd" d="M5.67798 8.59843C10.913 7.95374 24.671 7.92149 62.0187 7.85703C120.338 7.76032 166.624 7.05117 179.488 6.01966C180.51 5.92296 98.7598 5.2138 90.3646 5.72955C77.277 6.56765 14.7754 5.85849 2.19856 4.89145C-1.3766 4.63357 -0.0359003 3.731 2.29434 3.53759C5.93332 3.21525 15.7012 3.24749 42.4831 3.31196C61.3165 3.34419 211.154 2.60279 227.529 1.28117C236.722 0.539778 242.309 -0.137148 244.862 0.024025C247.001 0.152964 247.033 0.539778 245.182 1.60352C243.937 2.31268 245.341 2.73173 246.235 2.92514C247.608 3.24748 247.033 4.34346 245.309 5.2138C242.979 6.40648 238.957 6.37424 240.872 5.18156C241.287 4.92368 241.383 4.27899 239.915 4.40793C235.637 4.79475 205.408 7.43798 197.204 7.88926C109.613 12.7889 24.1283 9.21089 6.02908 10.4036C-0.387046 10.8548 2.54973 8.98524 5.67798 8.59843Z" fill="white"/>
</svg>
