<svg width="16" height="16" viewBox="0 0 16 16" fill="none" xmlns="http://www.w3.org/2000/svg">
<path d="M15.8438 15.125L11.7188 11.0625C12.2604 10.4792 12.6875 9.80729 13 9.04688C13.3125 8.28646 13.4688 7.47917 13.4688 6.625C13.4688 5.70833 13.2917 4.84896 12.9375 4.04688C12.5833 3.24479 12.1016 2.54427 11.4922 1.94531C10.8828 1.34635 10.1719 0.869792 9.35938 0.515625C8.53646 0.171875 7.66146 0 6.73438 0C5.80729 0 4.93229 0.171875 4.10938 0.515625C3.29688 0.869792 2.58594 1.34635 1.97656 1.94531C1.36719 2.54427 0.885417 3.24479 0.53125 4.04688C0.177083 4.84896 0 5.70833 0 6.625C0 7.54167 0.177083 8.40104 0.53125 9.20312C0.885417 10.0052 1.36719 10.7057 1.97656 11.3047C2.58594 11.9036 3.29688 12.3802 4.10938 12.7344C4.93229 13.0781 5.80729 13.25 6.73438 13.25C7.53646 13.25 8.29688 13.1198 9.01562 12.8594C9.73438 12.599 10.3854 12.2344 10.9688 11.7656L15.1094 15.8438C15.2135 15.9479 15.3385 16 15.4844 16C15.6302 16 15.75 15.9479 15.8438 15.8438C15.9479 15.75 16 15.6328 16 15.4922C16 15.3516 15.9479 15.2292 15.8438 15.125ZM6.73438 12.2344C5.94271 12.2344 5.20312 12.0885 4.51562 11.7969C3.82812 11.4948 3.22656 11.0911 2.71094 10.5859C2.19531 10.0807 1.78646 9.48958 1.48438 8.8125C1.18229 8.125 1.03125 7.39583 1.03125 6.625C1.03125 5.85417 1.18229 5.125 1.48438 4.4375C1.78646 3.76042 2.19531 3.16927 2.71094 2.66406C3.22656 2.15885 3.82812 1.75521 4.51562 1.45312C5.20312 1.16146 5.94271 1.01562 6.73438 1.01562C7.51562 1.01562 8.25521 1.16146 8.95312 1.45312C9.64062 1.75521 10.2422 2.15885 10.7578 2.66406C11.2734 3.16927 11.6823 3.76042 11.9844 4.4375C12.276 5.125 12.4219 5.85417 12.4219 6.625C12.4219 7.39583 12.276 8.125 11.9844 8.8125C11.6823 9.48958 11.2734 10.0807 10.7578 10.5859C10.2422 11.0911 9.64062 11.4948 8.95312 11.7969C8.25521 12.0885 7.51562 12.2344 6.73438 12.2344Z" fill="#071C1F"/>
</svg>
