<?xml version="1.0" encoding="utf-8"?>
<!-- Generator: Adobe Illustrator 27.8.0, SVG Export Plug-In . SVG Version: 6.00 Build 0)  -->
<svg version="1.1" id="Capa_1" xmlns="http://www.w3.org/2000/svg" xmlns:xlink="http://www.w3.org/1999/xlink" x="0px" y="0px"
	 viewBox="0 0 479 479" style="enable-background:new 0 0 479 479;" xml:space="preserve">
<style type="text/css">
	.st0{fill:#FFFFFF;}
</style>
<g>
	<g>
		<g>
			<rect x="344" y="319.5" class="st0" width="48" height="16"/>
			<rect x="280" y="319.5" class="st0" width="48" height="16"/>
			<rect x="216" y="319.5" class="st0" width="48" height="16"/>
			<path class="st0" d="M471.9,165.9L313.6,7.6c-4.5-4.5-10.6-7.1-17-7.1h-0.1c-6.3,0-12.4,2.6-16.9,7.1L111.7,175.5H24
				c-13.3,0-24,10.7-24,24v224c0,13.3,10.7,24,24,24h118.5l23.9,23.9c4.5,4.5,10.6,7.1,17,7.1h0.1c6.3,0,12.4-2.6,16.9-7.1
				l23.9-23.9H408c13.3,0,24-10.7,24-24V239.8l39.9-39.9c4.5-4.5,7.1-10.5,7.1-16.9C479,176.6,476.5,170.4,471.9,165.9z M370.1,86.8
				l-88.7,88.7h-67.9L336.2,52.8L370.1,86.8z M291,18.9c3-3.1,8-3.2,11.2-0.1c0,0,0.1,0.1,0.1,0.1l22.6,22.6l-134,134h-56.5
				L291,18.9z M189,460.1c-1.5,1.5-3.5,2.4-5.6,2.4c-2.1,0-4.2-0.9-5.7-2.4l-12.6-12.6h36.5L189,460.1z M416,423.5c0,4.4-3.6,8-8,8
				H24c-4.4,0-8-3.6-8-8v-112h400V423.5z M416,295.5H16v-48h400V295.5z M416,231.5H16v-32c0-4.4,3.6-8,8-8h384c4.4,0,8,3.6,8,8
				V231.5z M460.6,188.6L460.6,188.6L432,217.1v-17.6c0-13.3-10.7-24-24-24H304l77.4-77.4l79.1,79.1c1.5,1.5,2.4,3.6,2.4,5.7
				C463,185.1,462.1,187.1,460.6,188.6z"/>
			<path class="st0" d="M76.7,415.7c1.2-1,2.3-2.1,3.3-3.3c10.6,12.3,28.8,14.7,42.1,5.4c8.6-6,13.8-15.9,13.9-26.4
				c0-17.7-14.3-32-32-32c-1.6,0-3.2,0.1-4.7,0.4l-0.2,0.1c-0.1,0-0.2,0-0.2,0c-7.3,1.2-14,5-18.8,10.6
				c-11.6-13.4-31.8-14.8-45.1-3.3c-13.4,11.6-14.8,31.8-3.3,45.1C43.2,425.8,63.4,427.3,76.7,415.7z M102,375.7
				c0.7-0.1,1.3-0.2,2-0.2c8.8,0,16,7.2,16,16c0,3.4-1.1,6.7-3.1,9.4c-0.3,0.4-0.5,0.8-0.8,1.2c-0.1,0.1-0.1,0.1-0.2,0.2
				c-3,3.3-7.3,5.2-11.8,5.2c-8.8-0.2-15.9-7.4-15.7-16.3C88.4,383.4,94.2,376.8,102,375.7z M56,375.5c8.8,0,16,7.2,16,16
				s-7.2,16-16,16s-16-7.2-16-16S47.2,375.5,56,375.5z"/>
		</g>
	</g>
</g>
</svg>
