<?xml version="1.0" encoding="utf-8"?>
<!-- Generator: Adobe Illustrator 27.8.0, SVG Export Plug-In . SVG Version: 6.00 Build 0)  -->
<svg version="1.1" id="Capa_1" xmlns="http://www.w3.org/2000/svg" xmlns:xlink="http://www.w3.org/1999/xlink" x="0px" y="0px"
	 viewBox="0 0 512 512" style="enable-background:new 0 0 512 512;" xml:space="preserve">
<style type="text/css">
	.st0{fill:#FFFFFF;}
</style>
<g>
	<g>
		<path class="st0" d="M509.4,208.7c-3.4-8-9.7-14.2-17.8-17.5l-9-3.6v-47.6c0-17.9-14.6-32.5-32.5-32.5H284.9l-94.7-38.4
			c-3.8-1.6-8.2,0.3-9.8,4.1c-1.6,3.8,0.3,8.2,4.1,9.8l60.3,24.4H87.8l15.6-38.4c3.6-9,13.9-13.3,22.8-9.7l30.5,12.4
			c3.9,1.6,8.2-0.3,9.8-4.1c1.6-3.8-0.3-8.2-4.1-9.8l-30.5-12.4c-16.6-6.7-35.6,1.3-42.4,17.9l-17.9,44.1h-9.7
			c-17.9,0-32.5,14.6-32.5,32.5v71.8L2.4,278.4c-3.3,8.1-3.2,16.9,0.2,24.9c3.4,8,9.7,14.2,17.8,17.5l9,3.6v47.6
			c0,17.9,14.6,32.5,32.5,32.5H94c4.2,0,7.5-3.4,7.5-7.5s-3.4-7.5-7.5-7.5H61.9c-9.7,0-17.5-7.9-17.5-17.5V237.6h98.8
			c-17.3,13.7-40.5,37.4-50.3,71.6c-1.1,3.8,1,7.9,4.8,9.2c4,1.4,8.5-0.9,9.7-5c10.1-35.5,37.5-58.9,53-69.6v145.8H124
			c-4.2,0-7.5,3.4-7.5,7.5s3.4,7.5,7.5,7.5h103.1l74.7,30.2c0.9,0.4,1.9,0.6,2.8,0.6c3,0,5.8-1.8,7-4.7c1.6-3.8-0.3-8.2-4.1-9.8
			l-40.3-16.3h157.1l-15.6,38.4c-3.6,9-13.9,13.3-22.8,9.7l-50.5-20.5c-3.8-1.6-8.2,0.3-9.8,4.1c-1.6,3.8,0.3,8.2,4.1,9.8l50.5,20.5
			c4,1.6,8.1,2.4,12.2,2.4c12.9,0,25.1-7.7,30.2-20.3l17.9-44.1h9.7c17.9,0,32.5-14.6,32.5-32.5v-71.8l26.9-66.5
			C512.9,225.6,512.8,216.7,509.4,208.7L509.4,208.7z M26,306.8c-4.3-1.8-7.7-5.1-9.6-9.4c-1.8-4.3-1.9-9.1-0.1-13.4l13-32.1v56.3
			L26,306.8z M93.4,194.7c-1.3-3-2.2-7.9,4.6-14.9c3.1-3.2,7.1-5.3,11.7-4.6c9.1,1.4,21.1,11.9,33.8,29.6
			c4.4,6.1,8.3,12.3,11.2,17.3C125.9,219.1,98.9,207.6,93.4,194.7L93.4,194.7z M160.3,202.5c-11.9-17.9-29.8-39.4-48.4-42.2
			c-9.1-1.4-17.7,1.8-24.7,9.1c-5.4,5.6-13.6,17.1-7.6,31.2c3.7,8.8,12.1,16.2,23.1,22.1H44.4v-82.5c0-9.7,7.9-17.5,17.5-17.5h98.4
			L160.3,202.5L160.3,202.5z M467.6,371.9c0,9.7-7.9,17.5-17.5,17.5H175.3V243.7c15.4,10.8,42.8,34.2,53,69.6c1.2,4.1,5.7,6.4,9.7,5
			c3.7-1.3,5.8-5.4,4.8-9.2c-9.8-34.2-32.9-57.9-50.3-71.6h275.1L467.6,371.9z M181,222c2.9-4.9,6.7-11,11.1-17.1
			c12.7-17.8,24.8-28.3,33.9-29.7c4.6-0.7,8.5,1.4,11.7,4.6c6.8,7,5.9,11.9,4.6,14.9C236.7,207.6,209.8,219.1,181,222L181,222z
			 M467.6,222.6H232.9c10.9-5.9,19.4-13.3,23.1-22.1c6-14.1-2.2-25.6-7.6-31.2c-7-7.3-15.6-10.4-24.7-9.1
			c-18.6,2.8-36.5,24.3-48.4,42.2v-80h274.8c9.7,0,17.5,7.9,17.5,17.5L467.6,222.6L467.6,222.6z M495.7,228l-13,32.1v-56.3l3.4,1.4
			c4.3,1.8,7.7,5.1,9.6,9.4C497.4,218.9,497.4,223.7,495.7,228L495.7,228z"/>
		<path class="st0" d="M384.2,351.9v7.2c0,4.1,3.4,7.5,7.5,7.5c4.2,0,7.5-3.4,7.5-7.5v-7c5.7-1.2,9.5-3.8,12-6.1
			c4.9-4.6,7.8-11.6,7.8-18.6c0-5.8-1.8-11-5.2-15.1c-4.6-5.5-11.7-8.9-21.3-9.9c-8.9-1-10.3-5.6-10.3-8.2c0-1.6,0.5-9.4,9.4-9.4
			c5.7,0,8.2,3.4,8.8,4.4c1.1,2.7,3.8,4.7,7,4.7c5.7,0,8.9-5.9,6.8-10.9c-1.8-3.9-6.7-9.9-15.1-12.3v-7.4c0-4.1-3.4-7.5-7.5-7.5
			s-7.5,3.4-7.5,7.5v7.3c-5.1,1.5-9.4,4.5-12.4,8.9c-4.2,6.1-4.5,12.7-4.5,14.5c0,9.5,6.2,21.2,23.6,23.2
			c13.1,1.4,13.1,7.7,13.1,10.1c0,2.3-0.8,5.5-3.1,7.7c-2.2,2-5.6,3-10,2.7c-9.5-0.6-11.6-6.5-11.8-7.2l0,0
			c-0.8-3.3-3.8-5.7-7.3-5.7c-5.2,0-8.9,5.3-7,10.2C365.5,337.4,369.8,348.7,384.2,351.9L384.2,351.9z"/>
	</g>
</g>
</svg>
