<?xml version="1.0" encoding="utf-8"?>
<!-- Generator: Adobe Illustrator 27.8.0, SVG Export Plug-In . SVG Version: 6.00 Build 0)  -->
<svg version="1.1" id="Layer_1" xmlns="http://www.w3.org/2000/svg" xmlns:xlink="http://www.w3.org/1999/xlink" x="0px" y="0px"
	 viewBox="0 0 480 480" style="enable-background:new 0 0 480 480;" xml:space="preserve">
<style type="text/css">
	.st0{fill:#FFFFFF;}
</style>
<path class="st0" d="M192.1,431.9c0,8.8-7.2,16-16,16c-8.8,0-16-7.2-16-16s7.2-16,16-16C184.9,415.9,192.1,423.1,192.1,431.9z"/>
<path class="st0" d="M384,431.9c0,8.8-7.2,16-16,16c-8.8,0-16-7.2-16-16s7.2-16,16-16C376.9,415.9,384,423.1,384,431.9z"/>
<path class="st0" d="M416,192h-16V32h-176v160h-48v160h-40V0h-112v48h64v351.9h52.3c-17.3,19.2-16.3,48.7,2.3,66.6
	c18.6,18,48.1,18,66.7,0c18.6-18,19.6-47.4,2.3-66.6h120.6c-17.3,19.2-16.3,48.7,2.3,66.6c18.6,18,48.1,18,66.7,0
	c18.6-18,19.6-47.4,2.3-66.6H456v-48h-40V192z M328,48v80h-32V48H328z M240.1,48h40v96h64V48h40v144h-144V48z M192.1,208h208v32
	h-208V208z M192.1,255.9h208v96h-208V255.9z M40.1,32V16h48v16H40.1z M104.1,16h16v239.9h-16V16z M104.1,271.9h16v80h-16V271.9z
	 M208.1,431.9c0,17.7-14.3,32-32,32s-32-14.3-32-32c0-17.7,14.3-32,32-32S208.1,414.2,208.1,431.9z M400,431.9c0,17.7-14.3,32-32,32
	c-17.7,0-32-14.3-32-32c0-17.7,14.3-32,32-32C385.7,399.9,400,414.2,400,431.9z M440,367.9v16H104.1v-16H440z"/>
<path class="st0" d="M368,319.9h-16v16h32v-40h-16V319.9z"/>
<path class="st0" d="M256.1,160h16v16h-16V160z"/>
</svg>
