<?xml version="1.0" encoding="utf-8"?>
<!-- Generator: Adobe Illustrator 27.8.0, SVG Export Plug-In . SVG Version: 6.00 Build 0)  -->
<svg version="1.1" id="Capa_1" xmlns="http://www.w3.org/2000/svg" xmlns:xlink="http://www.w3.org/1999/xlink" x="0px" y="0px"
	 viewBox="0 0 512 512" style="enable-background:new 0 0 512 512;" xml:space="preserve">
<style type="text/css">
	.st0{fill:#FFFFFF;}
</style>
<g>
	<g>
		<g>
			<path d="M316.2,117.6h0.6C316.8,117.6,316.3,116.4,316.2,117.6z"/>
			<path d="M171.7,117.6h0.6C172.2,116.4,171.7,117.6,171.7,117.6z"/>
		</g>
	</g>
</g>
<g>
	<g>
		<path class="st0" d="M460.5,154.4c-3.4-5.4-8.6-9.1-14.8-10.5l-32.5-7.5l15-4.2c12.4-3.5,19.9-16.7,16.4-29.2
			c-3.5-12.4-16.7-19.9-29.2-16.4l-69.9,19.6c-1.8-3.3-4.4-6.1-7.5-8.3c14.2-26.4,34.6-71.2,34.6-90.4c0-4.7-4.4-8.3-9.1-7.4
			c-27.7,5.6-53.6,8.2-79,7.9c-26.1-0.3-58.7-3.5-79.1-7.9c-6.3-1.3-11.4,5.7-8.1,11.3c5,8.3,8,17.1,9.7,25.9
			C181.6,38.2,155,35,134.8,25c-5.4-2.7-11.8,2-10.8,8c6.3,38,19.1,60.3,31.9,77.1h-0.3c-13.1,0-23.7,10.6-23.7,23.7
			c0,12,9,21.9,20.6,23.5c-8.5,14.2-20.5,27.6-33.2,41.7c-27,30-57.5,64-67.8,118.8c-4.9,26.2-4.8,50.8,0.5,73
			c4.9,20.7,14.2,39.5,27.7,55.7c17.9,21.6,42.5,38.3,73.2,49.8c27.6,10.3,59.2,15.8,91.4,15.8s63.8-5.5,91.4-15.8
			c30.6-11.5,55.3-28.2,73.2-49.8c13.5-16.3,22.8-35,27.7-55.7c5.2-22.2,5.4-46.8,0.5-73c-10.3-54.9-40.9-88.8-67.8-118.8
			c-9.2-10.2-17.9-19.9-25.2-29.7l91.1,20.9c9.6,2.2,19.9-2,25.3-10.3C465.3,172.1,465.3,162.1,460.5,154.4z M284.5,23.2
			c23.3,0.3,46.8-1.8,71.7-6.2C351.6,35.6,337,68.8,323.1,94c-9.6,0.7-17.7,7.2-20.6,16h-21c-0.5-1-1-2.1-1.6-3.4
			c-6.5-13.8-20-42.5-20-66.9c0-4.7-4.4-8.3-9-7.4c-8.8,1.8-18.5,3.2-28.5,4.1c-1.1-6.3-2.7-12.6-5.1-18.8
			C237.6,20.8,263.1,22.9,284.5,23.2z M333.4,117.6v32.2c0,4.7-3.8,8.6-8.6,8.6s-8.6-3.8-8.6-8.6v-32.2c0-4.7,3.8-8.6,8.6-8.6
			S333.4,112.9,333.4,117.6z M141.6,44.1c18.9,6.4,42.1,9.3,67.2,8.4l15-0.9c7.1-0.6,14.2-1.6,21.4-2.8c2.4,23.4,13,47.4,19.5,61.3
			h-50.3h-15.9h-23.4c-0.2-0.3-0.4-0.5-0.6-0.8C162,94.1,149.2,76.5,141.6,44.1z M358,209c25.6,28.5,54.7,60.8,64.2,111.5
			c8.7,46.7,0.3,85.8-25,116.3c-31.2,37.6-88.4,60.1-152.9,60.1s-121.7-22.5-152.9-60.1c-25.3-30.5-33.7-69.7-25-116.3
			c9.5-50.7,38.6-83,64.2-111.5c15.3-17,29.8-33.2,39.1-51.6h18.5c4.2,0,7.6-3.4,7.6-7.6c0-4.2-3.4-7.6-7.6-7.6h-32.5
			c-4.7,0-8.6-3.8-8.6-8.6s3.8-8.6,8.6-8.6h145.6v17.1h-77.1c-4.2,0-7.6,3.4-7.6,7.6s3.4,7.6,7.6,7.6h78.3
			c3.2,9.4,12,16.1,22.4,16.1c1.2,0,2.4-0.1,3.5-0.3C336.8,185.5,347.1,196.9,358,209z M348.5,121.1l71-19.9
			c4.5-1.3,9.3,1.4,10.6,5.9c1.3,4.5-1.4,9.3-5.9,10.6l-40.6,11.4c-0.3,0.1-0.6,0.2-1,0.3l-34.1-7.8L348.5,121.1L348.5,121.1z
			 M448.8,168.9c-1.1,4.6-5.7,7.5-10.3,6.4l-90.5-20.8c0.3-1.5,0.5-3.1,0.5-4.7v-12.7l93.8,21.6
			C446.9,159.7,449.8,164.4,448.8,168.9z"/>
	</g>
</g>
<g>
	<g>
		<path class="st0" d="M292.6,310.5c10.8,0,19.6-8.8,19.6-19.6v-12.1c0-28.3-21.1-51.7-48.4-55.4v-13.1c0-10.8-8.8-19.6-19.6-19.6
			c-10.8,0-19.6,8.8-19.6,19.6v14.1c-28,6.2-48.4,31.1-48.4,60.4c0,34.2,27.8,62,62,62h12.1c12.5,0,22.7,10.2,22.7,22.7
			s-10.2,22.7-22.7,22.7h-18.1c-9.2,0-16.6-7.5-16.6-16.6c0-10.8-8.8-19.6-19.6-19.6c-10.8,0-19.6,8.8-19.6,19.6
			c0,28.3,21.1,51.7,48.4,55.4V444c0,10.8,8.8,19.6,19.6,19.6c10.8,0,19.6-8.8,19.6-19.6v-14.1c28-6.2,48.4-31.1,48.4-60.4
			c0-34.2-27.8-62-62-62h-12.1c-12.5,0-22.7-10.2-22.7-22.7s10.2-22.7,22.7-22.7h18.1c9.2,0,16.6,7.5,16.6,16.6v12.1
			C273,301.7,281.8,310.5,292.6,310.5z M256.4,247.1h-18.1c-20.8,0-37.8,16.9-37.8,37.8c0,20.8,16.9,37.8,37.8,37.8h12.1
			c25.8,0,46.8,21,46.8,46.8c0,23.9-17.9,43.9-41.6,46.5c-3.8,0.4-6.7,3.7-6.7,7.5V444c0,2.5-2,4.5-4.5,4.5s-4.5-2-4.5-4.5v-20.1
			c0-4.2-3.4-7.6-7.6-7.6c-22.5,0-40.8-18.3-40.8-40.8c0-2.5,2-4.5,4.5-4.5s4.5,2,4.5,4.5c0,17.5,14.2,31.7,31.7,31.7h18.1
			c20.8,0,37.8-16.9,37.8-37.8s-16.9-37.8-37.8-37.8h-12.1c-25.8,0-46.8-21-46.8-46.8c0-23.9,17.9-43.9,41.6-46.5
			c3.8-0.4,6.7-3.7,6.7-7.5v-20.5c0-2.5,2-4.5,4.5-4.5s4.5,2,4.5,4.5v20.1c0,4.2,3.4,7.6,7.6,7.6c22.5,0,40.8,18.3,40.8,40.8v12.1
			c0,2.5-2,4.5-4.5,4.5s-4.5-2-4.5-4.5v-12.1C288.1,261.3,273.9,247.1,256.4,247.1z"/>
	</g>
</g>
</svg>
