<svg width="24" height="25" viewBox="0 0 24 25" fill="none" xmlns="http://www.w3.org/2000/svg">
<path d="M18.92 4.81056C17.32 3.21056 14.98 2.60056 12.8 3.22056C12.4 3.33056 12.17 3.75056 12.28 4.15056C12.39 4.55056 12.81 4.78056 13.21 4.67056C14.86 4.20056 16.65 4.67056 17.86 5.88056C19.08 7.10056 19.54 8.88056 19.07 10.5306C18.96 10.9306 19.19 11.3406 19.59 11.4606C19.66 11.4806 19.73 11.4906 19.79 11.4906C20.12 11.4906 20.42 11.2706 20.51 10.9406C21.13 8.76056 20.51 6.42056 18.92 4.82056V4.81056Z" fill="#5E5E5E"/>
<path d="M16.05 11.3305C16.18 11.4305 16.34 11.4805 16.5 11.4805C16.73 11.4805 16.95 11.3805 17.1 11.1805C18.07 9.90048 17.94 8.07048 16.8 6.93048C15.66 5.79048 13.84 5.66048 12.55 6.63048C12.22 6.88048 12.15 7.35048 12.4 7.68048C12.65 8.01048 13.12 8.08048 13.45 7.83048C14.14 7.31048 15.12 7.38048 15.74 7.99048C16.36 8.60048 16.42 9.59048 15.9 10.2805C15.65 10.6105 15.72 11.0805 16.05 11.3305ZM15.32 14.8405C14.94 14.5405 14.44 14.4405 13.97 14.5705L12.42 15.0205C11.75 14.3705 11.12 13.6805 10.55 12.9505C9.9 12.1205 9.31 11.2305 8.8 10.3005L9.61 8.89048C9.86 8.46048 9.87 7.93048 9.65 7.49048L7.96 4.09048C7.61 3.37048 6.75 3.07048 6.02 3.39048C5.49 3.62048 4.98 3.91048 4.5 4.24048C4.03 4.56048 3.59 4.93048 3.19 5.33048C2.86 5.66048 2.71 6.13048 2.78 6.60048C3.13 8.88048 4.07 12.2905 6.57 15.6105C9.25 19.1805 12.53 21.0805 14.81 22.0405C15 22.1205 15.2 22.1605 15.39 22.1605C15.7 22.1605 16.01 22.0605 16.28 21.8605C16.83 21.4505 17.34 20.9605 17.79 20.4305C18.13 20.0205 18.43 19.5905 18.7 19.1305C19.06 18.5005 18.91 17.7005 18.33 17.2405L15.32 14.8305V14.8405ZM16.65 19.4805C16.28 19.9205 15.86 20.3205 15.4 20.6705C13.29 19.7805 10.25 18.0205 7.77 14.7205C5.46 11.6505 4.59 8.49048 4.27 6.38048C4.6 6.05048 4.97 5.75048 5.35 5.48048C5.75 5.20048 6.18 4.96048 6.62 4.76048L8.31 8.15048L7.29 9.92048C7.16 10.1405 7.16 10.4105 7.28 10.6405C7.88 11.7805 8.58 12.8705 9.37 13.8805C10.08 14.7905 10.87 15.6405 11.71 16.4205C11.9 16.6005 12.18 16.6605 12.43 16.5905L14.38 16.0205L17.4 18.4005C17.18 18.7805 16.93 19.1505 16.65 19.4805Z" fill="#5E5E5E"/>
</svg>
