<svg width="25" height="25" viewBox="0 0 25 25" fill="none" xmlns="http://www.w3.org/2000/svg">
<path d="M19.7758 22.0069C17.6945 23.7646 14.9946 24.8802 12.0555 24.8802C7.68203 24.8802 3.84292 22.4709 1.76172 18.9554L2.54087 15.3638L5.99453 14.7227C6.79609 17.31 9.21479 19.2085 12.0555 19.2085C13.4335 19.2085 14.7133 18.7726 15.768 17.9991L19.0867 18.5054L19.7758 22.0069Z" fill="#59C36A"/>
<path d="M19.775 22.0038L19.0859 18.5023L15.7672 17.9961C14.7125 18.7695 13.4328 19.2054 12.0547 19.2054V24.8772C14.9938 24.8772 17.6938 23.7616 19.775 22.0038Z" fill="#00A66C"/>
<path d="M5.72656 12.8795C5.72656 13.5264 5.825 14.1451 5.99375 14.7217L1.76094 18.9544C0.70625 17.1826 0.0546875 15.1013 0.0546875 12.8795C0.0546875 10.6577 0.70625 8.57652 1.76094 6.80469L5.15811 7.38935L5.99375 11.0374C5.825 11.6139 5.72656 12.2326 5.72656 12.8795Z" fill="#FFDA2D"/>
<path d="M24.0547 12.8788C24.0547 16.535 22.3625 19.8115 19.775 22.0052L15.7672 17.9975C16.5828 17.4068 17.2719 16.6193 17.7219 15.6913H12.0547C11.6609 15.6913 11.3516 15.3819 11.3516 14.9882V10.7695C11.3516 10.3757 11.6609 10.0664 12.0547 10.0664H23.1547C23.4922 10.0664 23.7875 10.3054 23.8438 10.6429C23.9844 11.3742 24.0547 12.1335 24.0547 12.8788Z" fill="#4086F4"/>
<path d="M17.7219 15.6913C17.2719 16.6193 16.5828 17.4068 15.7672 17.9975L19.775 22.0052C22.3625 19.8115 24.0547 16.535 24.0547 12.8788C24.0547 12.1335 23.9844 11.3742 23.8437 10.6429C23.7875 10.3054 23.4921 10.0664 23.1546 10.0664H12.0547V15.6913H17.7219Z" fill="#376AED"/>
<path d="M19.9726 4.23034C19.9867 4.42721 19.9023 4.61007 19.7758 4.75064L16.7664 7.74588C16.5274 7.999 16.1336 8.02712 15.8524 7.81619C14.7414 6.98657 13.4335 6.55064 12.0555 6.55064C9.21479 6.55064 6.79609 8.44899 5.99453 11.0365L1.76172 6.80376C3.84292 3.28822 7.68203 0.878906 12.0555 0.878906C14.8539 0.878906 17.582 1.91013 19.7195 3.71004C19.8742 3.83665 19.9586 4.03347 19.9726 4.23034Z" fill="#FF7F23"/>
<path d="M15.8516 7.81619C16.1328 8.02717 16.5265 7.999 16.7656 7.74588L19.775 4.75064C19.9016 4.61007 19.9859 4.42726 19.9718 4.23034C19.9577 4.03342 19.8734 3.83665 19.7187 3.71004C17.5813 1.91013 14.8531 0.878906 12.0547 0.878906V6.55064C13.4328 6.55064 14.7406 6.98657 15.8516 7.81619Z" fill="#F03800"/>
</svg>
