<svg width="24" height="25" viewBox="0 0 24 25" fill="none" xmlns="http://www.w3.org/2000/svg">
<path d="M16.75 9.27922V7.94922C16.75 5.32922 14.62 3.19922 12 3.19922C9.38 3.19922 7.25 5.32922 7.25 7.94922V9.27922C5.54 9.62922 4.25 11.1392 4.25 12.9492V18.9492C4.25 21.0192 5.93 22.6992 8 22.6992H16C18.07 22.6992 19.75 21.0192 19.75 18.9492V12.9492C19.75 11.1392 18.46 9.61922 16.75 9.27922ZM12 4.69922C13.79 4.69922 15.25 6.15922 15.25 7.94922V9.19922H8.75V7.94922C8.75 6.15922 10.21 4.69922 12 4.69922ZM18.25 18.9492C18.25 20.1892 17.24 21.1992 16 21.1992H8C6.76 21.1992 5.75 20.1892 5.75 18.9492V12.9492C5.75 11.7092 6.76 10.6992 8 10.6992H16C17.24 10.6992 18.25 11.7092 18.25 12.9492V18.9492Z" fill="#2A364E"/>
<path d="M12 14.1992C11.59 14.1992 11.25 14.5392 11.25 14.9492V16.9492C11.25 17.3592 11.59 17.6992 12 17.6992C12.41 17.6992 12.75 17.3592 12.75 16.9492V14.9492C12.75 14.5392 12.41 14.1992 12 14.1992Z" fill="#2A364E"/>
</svg>
