<svg width="25" height="25" viewBox="0 0 25 25" fill="none" xmlns="http://www.w3.org/2000/svg">
<path d="M3.52878 8.94922L8.98356 12.5942C10.2642 13.4455 10.9045 13.8711 11.5964 14.0365C12.2078 14.1827 12.8451 14.1827 13.4565 14.0365C14.1483 13.8711 14.7887 13.4455 16.0693 12.5942L21.4736 8.98927M8.3 19.9492H16.7C18.3802 19.9492 19.2202 19.9492 19.862 19.6222C20.4265 19.3346 20.8854 18.8757 21.173 18.3112C21.5 17.6695 21.5 16.8294 21.5 15.1492V10.7492C21.5 9.06906 21.5 8.22898 21.173 7.58725C20.8854 7.02276 20.4265 6.56382 19.862 6.2762C19.2202 5.94922 18.3802 5.94922 16.7 5.94922H8.3C6.61984 5.94922 5.77976 5.94922 5.13803 6.2762C4.57354 6.56382 4.1146 7.02276 3.82698 7.58725C3.5 8.22898 3.5 9.06906 3.5 10.7492V15.1492C3.5 16.8294 3.5 17.6695 3.82698 18.3112C4.1146 18.8757 4.57354 19.3346 5.13803 19.6222C5.77976 19.9492 6.61984 19.9492 8.3 19.9492Z" stroke="#2A364E" stroke-width="1.5" stroke-linecap="round" stroke-linejoin="round"/>
</svg>
