<svg width="24" height="25" viewBox="0 0 24 25" fill="none" xmlns="http://www.w3.org/2000/svg">
<path d="M21.69 12.6592C20.05 8.72922 16.25 6.19922 12 6.19922C7.75 6.19922 3.94 8.73922 2.31 12.6592C2.23 12.8392 2.23 13.0492 2.31 13.2392C3.95 17.1692 7.75 19.6992 12 19.6992C16.25 19.6992 20.06 17.1592 21.69 13.2392C21.77 13.0592 21.77 12.8492 21.69 12.6592ZM12 18.1992C8.46 18.1992 5.28 16.1492 3.82 12.9492C5.28 9.74922 8.46 7.69922 12 7.69922C15.54 7.69922 18.72 9.74922 20.18 12.9492C18.72 16.1492 15.54 18.1992 12 18.1992Z" fill="#2A364E"/>
<path d="M12 9.19922C9.93 9.19922 8.25 10.8792 8.25 12.9492C8.25 15.0192 9.93 16.6992 12 16.6992C14.07 16.6992 15.75 15.0192 15.75 12.9492C15.75 10.8792 14.07 9.19922 12 9.19922ZM12 15.1992C10.76 15.1992 9.75 14.1892 9.75 12.9492C9.75 11.7092 10.76 10.6992 12 10.6992C13.24 10.6992 14.25 11.7092 14.25 12.9492C14.25 14.1892 13.24 15.1992 12 15.1992Z" fill="#2A364E"/>
</svg>
