<svg width="68" height="65" viewBox="0 0 68 65" fill="none" xmlns="http://www.w3.org/2000/svg">
<path d="M42.2074 45.7807C42.1016 45.7807 41.998 45.7524 41.9081 45.6992C41.8183 45.6459 41.7458 45.5698 41.6987 45.4793C41.1212 44.3675 40.4309 41.3165 40.4016 41.1877C40.3754 41.0491 40.4066 40.9062 40.4886 40.7892C40.5706 40.6722 40.697 40.5902 40.8411 40.5605C40.9851 40.5309 41.1356 40.5559 41.2608 40.6302C41.3859 40.7046 41.4759 40.8226 41.5118 40.9592C41.7019 41.8035 42.2888 44.1739 42.716 44.9962C42.759 45.079 42.7792 45.1709 42.7747 45.2632C42.7701 45.3555 42.741 45.4452 42.6901 45.5237C42.6392 45.6023 42.5681 45.6671 42.4836 45.7121C42.3991 45.757 42.304 45.7807 42.2074 45.7807Z" fill="black"/>
<path d="M62.2228 60.8419H4.98559C4.82429 60.8418 4.66541 60.8045 4.5224 60.7332C4.37939 60.6619 4.25647 60.5587 4.16404 60.4324C4.07161 60.3061 4.0124 60.1603 3.99143 60.0075C3.97046 59.8547 3.98834 59.6993 4.04356 59.5544C4.8258 57.5085 7.47957 50.7378 8.79757 49.5112C11.2299 47.2487 14.9751 46.7357 18.2785 46.2836C19.3792 46.1329 20.4528 45.9862 21.3855 45.7836C18.6642 45.3433 15.9404 44.9172 13.2143 44.5051C13.0653 44.4819 12.9238 44.4269 12.8001 44.3443C12.6764 44.2617 12.5737 44.1536 12.4997 44.028C12.4257 43.9023 12.3822 43.7623 12.3724 43.6184C12.3627 43.4745 12.387 43.3304 12.4435 43.1966C15.4356 36.1884 15.7876 28.265 15.7605 22.1461C15.7417 17.9124 18.2179 12.6777 21.9244 9.12073C25.2539 5.92403 29.2925 4.23535 33.6037 4.23535C44.0224 4.23535 52.1038 13.5091 52.1038 21.4884C52.1038 22.6631 52.0944 23.6851 52.085 24.6023C52.0255 30.7721 52.013 32.0556 55.5252 43.4222C55.5656 43.5547 55.5756 43.694 55.5545 43.8306C55.5335 43.9672 55.482 44.0978 55.4034 44.2136C55.3248 44.3294 55.221 44.4277 55.0991 44.5018C54.9772 44.5758 54.8401 44.6239 54.697 44.6428C52.1424 44.9702 48.6177 45.4293 46.0871 45.7686C46.9644 45.9742 47.9545 46.1379 48.9675 46.3065C52.0944 46.8265 55.639 47.4153 58.0965 49.4783C59.5398 50.6899 62.3356 57.4875 63.1586 59.5415C63.2166 59.6865 63.2369 59.8429 63.2177 59.9971C63.1985 60.1513 63.1403 60.2987 63.0483 60.4267C62.9562 60.5546 62.833 60.6593 62.6892 60.7316C62.5453 60.804 62.3853 60.8418 62.2228 60.8419ZM6.42788 58.9257H60.7554C59.2348 55.2699 57.426 51.4664 56.7732 50.9184C54.7398 49.2108 51.4908 48.6709 48.6239 48.1948C45.9315 47.7477 43.3885 47.3245 41.9629 45.9762C41.8296 45.8502 41.7359 45.691 41.6926 45.5167C41.6492 45.3424 41.6578 45.16 41.7175 44.9901C41.9326 44.3773 41.9326 44.3773 48.4892 43.515C50.3137 43.2755 52.1362 43.039 53.2714 42.8922C50.0046 32.2332 50.0182 30.7871 50.0788 24.5833C50.0871 23.6721 50.0976 22.6551 50.0976 21.4874C50.0976 14.3953 42.8924 6.15058 33.6026 6.15058C28.8444 6.15058 25.3969 8.50095 23.3437 10.4721C19.4701 14.1908 17.75 19.0103 17.7646 22.1371C17.7918 28.1133 17.4607 35.7743 14.7547 42.7974C25.3447 44.4023 25.3541 44.4272 25.5849 45.1149C25.6415 45.2841 25.6481 45.4651 25.6038 45.6377C25.5596 45.8103 25.4663 45.9678 25.3343 46.0929C23.8941 47.4503 21.304 47.8046 18.5625 48.1798C15.562 48.591 12.1605 49.0561 10.196 50.8835C9.58295 51.4554 7.89523 55.212 6.42788 58.9257Z" fill="black"/>
<path d="M25.0355 45.954C24.9358 45.954 24.8379 45.9289 24.7515 45.8812C24.6652 45.8336 24.5935 45.765 24.5436 45.6825C24.4938 45.6 24.4675 45.5064 24.4675 45.4111C24.4675 45.3158 24.4938 45.2222 24.5436 45.1396C25.1985 44.0518 25.6037 41.4918 25.705 40.5966C25.7288 40.4596 25.8064 40.3365 25.9221 40.2525C26.0378 40.1685 26.1827 40.1299 26.3272 40.1447C26.4717 40.1595 26.6047 40.2265 26.6992 40.3321C26.7936 40.4376 26.8422 40.5737 26.835 40.7124C26.8193 40.8531 26.4361 44.1725 25.5295 45.6796C25.4799 45.7629 25.4081 45.8323 25.3213 45.8805C25.2345 45.9287 25.1359 45.9541 25.0355 45.954Z" fill="black"/>
<path d="M33.6132 44.5852C26.2983 44.5852 19.6362 35.1368 19.6362 24.7612C19.6362 24.5806 19.7302 24.4119 19.8869 24.3111C19.9005 24.3031 21.4347 23.2662 22.6002 20.4777C24.3996 16.1711 23.9777 13.5283 23.9735 13.5014C23.9533 13.3663 23.987 13.2288 24.0678 13.1163C24.1487 13.0038 24.2709 12.9245 24.4102 12.894C24.5494 12.8636 24.6956 12.8844 24.8196 12.9521C24.9436 13.0199 25.0364 13.1298 25.0795 13.2599C25.0942 13.3078 26.6284 18.0774 32.2649 19.9916C33.6382 20.4577 35.0053 20.6753 36.5677 20.6753C37.5588 20.6753 38.4915 20.5884 39.3948 20.5046C40.2272 20.4278 41.0126 20.3549 41.7833 20.3549C43.635 20.3549 45.7958 20.7392 47.7843 23.5915C47.8445 23.678 47.8775 23.7791 47.8794 23.883L47.8877 24.369C47.8856 35.521 41.4826 44.5852 33.6132 44.5852ZM20.7736 25.0247C20.8822 34.7276 26.9532 43.5003 33.6132 43.5003C40.8559 43.5003 46.7494 34.9232 46.7494 24.38L46.7441 24.0646C44.5781 21.0515 42.3818 21.321 39.5035 21.5865C38.574 21.6723 37.6131 21.7621 36.5667 21.7621C34.8706 21.7621 33.3824 21.5246 31.8837 21.0156C28.2294 19.7751 26.1626 17.4846 25.068 15.7679C24.9166 17.0414 24.5354 18.774 23.655 20.8809C22.6242 23.347 21.3166 24.5866 20.7736 25.0247Z" fill="black"/>
</svg>
