<svg width="54" height="59" viewBox="0 0 54 59" fill="none" xmlns="http://www.w3.org/2000/svg">
<path d="M32.0904 31.5579L32.5463 31.1595C34.804 29.1865 36.4692 26.0528 37.5027 22.5536L37.677 21.9635L38.2824 21.8531C38.681 21.7804 39.151 21.4911 39.5744 20.9195C39.9922 20.3554 40.3188 19.5718 40.4387 18.6563C40.6537 16.9871 40.0876 15.6935 39.4135 15.1949L38.9117 14.8239L39.0245 14.2101C39.1934 13.2914 39.3829 11.9902 39.4101 10.6576C39.4377 9.30398 39.2945 8.02483 38.8764 7.0879L38.8759 7.08694C38.1478 5.45079 36.6343 4.59929 34.9185 4.17236L34.5096 4.07063L34.2968 3.70702C33.6137 2.53959 32.4758 1.38053 30.5229 1.38053C30.2792 1.38053 30.0157 1.37784 29.735 1.37496C27.4338 1.35142 23.9859 1.31614 20.9861 2.66004C19.3391 3.39793 17.855 4.54481 16.7931 6.34307C15.7269 8.14863 15.0412 10.6876 15.13 14.2804L15.1438 14.8407L14.6731 15.145C13.9667 15.6015 13.3341 16.9136 13.5642 18.6543L13.5649 18.6591C13.6813 19.5732 14.0067 20.3565 14.4241 20.9204C14.8473 21.4921 15.3174 21.781 15.7142 21.8529L16.3204 21.9628L16.4949 22.5536C17.5284 26.0528 19.1934 29.1858 21.4576 31.1586L21.9159 31.5579L21.7724 32.1486C21.5311 33.1418 21.1886 34.1825 20.6912 35.0983C20.1962 36.0097 19.5123 36.8623 18.5577 37.3818C17.7975 37.7984 16.8829 38.0887 15.9357 38.3307C15.2498 38.506 14.4989 38.6671 13.7367 38.8307C13.4467 38.8929 13.1552 38.9555 12.865 39.0193C10.7108 39.493 8.50101 40.0643 6.60287 41.1773L32.0904 31.5579ZM32.0904 31.5579L32.2321 32.1465M32.0904 31.5579L32.2321 32.1465M32.2321 32.1465C32.4716 33.1416 32.8133 34.1825 33.3097 35.0983C33.8039 36.0099 34.4869 36.8621 35.4396 37.3817M32.2321 32.1465L35.4396 37.3817M35.4396 37.3817C36.2003 37.7983 37.1154 38.0887 38.0632 38.331C38.7494 38.5063 39.5007 38.6676 40.2632 38.8313C40.5531 38.8935 40.8445 38.9561 41.1346 39.0199C43.2892 39.4939 45.4985 40.0652 47.3948 41.1773C49.1198 42.1916 50.3912 43.8111 51.2416 46.4946C52.047 49.0362 52.4598 52.49 52.5102 57.1831H27.0007H1.4911C1.54139 52.4899 1.95336 49.0359 2.75796 46.4943C3.60747 43.8108 4.87793 42.1915 6.60279 41.1773L35.4396 37.3817Z" stroke="black" stroke-width="2"/>
</svg>
