<svg width="36" height="36" viewBox="0 0 36 36" fill="none" xmlns="http://www.w3.org/2000/svg">
<path d="M31.5 7.5L24 0H7.5C6.70435 0 5.94129 0.316071 5.37868 0.87868C4.81607 1.44129 4.5 2.20435 4.5 3V33C4.5 33.7957 4.81607 34.5587 5.37868 35.1213C5.94129 35.6839 6.70435 36 7.5 36H28.5C29.2956 36 30.0587 35.6839 30.6213 35.1213C31.1839 34.5587 31.5 33.7957 31.5 33V7.5Z" fill="#2D98D5"/>
<path opacity="0.1" d="M28.5 35.625H7.5C6.70435 35.625 5.94129 35.3089 5.37868 34.7463C4.81607 34.1837 4.5 33.4206 4.5 32.625V33C4.5 33.7956 4.81607 34.5587 5.37868 35.1213C5.94129 35.6839 6.70435 36 7.5 36H28.5C29.2956 36 30.0587 35.6839 30.6213 35.1213C31.1839 34.5587 31.5 33.7956 31.5 33V32.625C31.5 33.4206 31.1839 34.1837 30.6213 34.7463C30.0587 35.3089 29.2956 35.625 28.5 35.625Z" fill="#010101"/>
<path d="M24 0V4.5C24 5.29565 24.3161 6.05871 24.8787 6.62132C25.4413 7.18393 26.2044 7.5 27 7.5H31.5L24 0Z" fill="#0877BE"/>
<path opacity="0.2" d="M24 0H7.5C6.70435 0 5.94129 0.316071 5.37868 0.87868C4.81607 1.44129 4.5 2.20435 4.5 3V3.375C4.5 2.57935 4.81607 1.81629 5.37868 1.25368C5.94129 0.691071 6.70435 0.375 7.5 0.375H24V0Z" fill="white"/>
<path opacity="0.05" d="M27 7.125C26.2044 7.125 25.4413 6.80893 24.8787 6.24632C24.3161 5.68371 24 4.92065 24 4.125V4.5C24 5.29565 24.3161 6.05871 24.8787 6.62132C25.4413 7.18393 26.2044 7.5 27 7.5H31.5L31.125 7.125H27Z" fill="#010101"/>
<path d="M27.0002 7.50041C26.1752 7.50041 25.4297 7.16741 24.8867 6.62891L31.5002 13.2409V7.50041H27.0002Z" fill="url(#paint0_linear_423_1777)"/>
<path d="M24.75 19.5H22.776L20.4375 22.494L17.037 17.7585C17.7572 17.496 18.3796 17.0189 18.8201 16.3914C19.2605 15.764 19.4978 15.0166 19.5 14.25C19.5 12.183 17.817 10.5 15.75 10.5H12V21.75H13.5V18H15.3645L19.4685 23.736L15.75 28.5H17.724L20.412 25.056L22.875 28.5H24.75L21.384 23.8125L24.75 19.5ZM13.5 12H15.75C16.9905 12 18 13.0095 18 14.25C18 15.4905 16.9905 16.5 15.75 16.5H13.5V12Z" fill="white"/>
<path d="M24 0H7.5C6.70435 0 5.94129 0.316071 5.37868 0.87868C4.81607 1.44129 4.5 2.20435 4.5 3V33C4.5 33.7957 4.81607 34.5587 5.37868 35.1213C5.94129 35.6839 6.70435 36 7.5 36H28.5C29.2956 36 30.0587 35.6839 30.6213 35.1213C31.1839 34.5587 31.5 33.7957 31.5 33V7.5L24 0Z" fill="url(#paint1_linear_423_1777)"/>
<defs>
<linearGradient id="paint0_linear_423_1777" x1="26.3222" y1="5.19341" x2="32.9357" y2="11.8069" gradientUnits="userSpaceOnUse">
<stop stop-color="#010101" stop-opacity="0.1"/>
<stop offset="1" stop-color="#010101" stop-opacity="0"/>
</linearGradient>
<linearGradient id="paint1_linear_423_1777" x1="0.4485" y1="11.0205" x2="34.6275" y2="26.958" gradientUnits="userSpaceOnUse">
<stop stop-color="white" stop-opacity="0.2"/>
<stop offset="1" stop-color="white" stop-opacity="0"/>
</linearGradient>
</defs>
</svg>
